<svg viewBox="0 0 24 24" xmlns="http://www.w3.org/2000/svg" xmlns:xlink="http://www.w3.org/1999/xlink" width="24.000000" height="24.000000" fill="none">
	<rect id="u:home-alt" width="24.000000" height="24.000000" x="0.000000" y="0.000000" />
	<path id="Vector" d="M20.0001 8.00001L14.0001 2.74001C13.4501 2.24805 12.738 1.97607 12.0001 1.97607C11.2622 1.97607 10.5501 2.24805 10.0001 2.74001L4.00009 8.00001C3.68246 8.28408 3.42899 8.63256 3.25657 9.02225C3.08414 9.41194 2.99671 9.83389 3.00009 10.26L3.00009 19C3.00009 19.7957 3.31617 20.5587 3.87877 21.1213C4.44138 21.6839 5.20445 22 6.00009 22L18.0001 22C18.7957 22 19.5588 21.6839 20.1214 21.1213C20.684 20.5587 21.0001 19.7957 21.0001 19L21.0001 10.25C21.0021 9.82557 20.9139 9.40555 20.7416 9.01769C20.5692 8.62983 20.3165 8.28296 20.0001 8.00001ZM14.0001 20L10.0001 20L10.0001 15C10.0001 14.7348 10.1055 14.4804 10.293 14.2929C10.4805 14.1054 10.7349 14 11.0001 14L13.0001 14C13.2653 14 13.5197 14.1054 13.7072 14.2929C13.8947 14.4804 14.0001 14.7348 14.0001 15L14.0001 20Z" fill="rgb(188.062,51.332,36.0453)" fill-rule="evenodd" />
</svg>
